<?xml version="1.0" encoding="UTF-8" standalone="no"?>
<svg
   xmlns:dc="http://purl.org/dc/elements/1.1/"
   xmlns:cc="http://creativecommons.org/ns#"
   xmlns:rdf="http://www.w3.org/1999/02/22-rdf-syntax-ns#"
   xmlns:svg="http://www.w3.org/2000/svg"
   xmlns="http://www.w3.org/2000/svg"
   xmlns:sodipodi="http://sodipodi.sourceforge.net/DTD/sodipodi-0.dtd"
   xmlns:inkscape="http://www.inkscape.org/namespaces/inkscape"
   viewBox="0 0 512 512"
   version="1.1"
   id="svg8"
   sodipodi:docname="instagram-color.svg"
   inkscape:version="0.92.4 (5da689c313, 2019-01-14)">
  <metadata
     id="metadata14">
    <rdf:RDF>
      <cc:Work
         rdf:about="">
        <dc:format>image/svg+xml</dc:format>
        <dc:type
           rdf:resource="http://purl.org/dc/dcmitype/StillImage" />
        <dc:title></dc:title>
      </cc:Work>
    </rdf:RDF>
  </metadata>
  <defs
     id="defs12">
    <radialGradient
       id="TGwjmZMm2W~B4yrgup6jdb"
       cx="18.51"
       cy="66.292999"
       r="69.648003"
       gradientTransform="matrix(7.13825,-8.4904686,5.6085457,4.7155712,-397.59082,460.969)"
       gradientUnits="userSpaceOnUse">
      <stop
         offset=".073"
         stop-color="#eacc7b"
         id="stop904" />
      <stop
         offset=".184"
         stop-color="#ecaa59"
         id="stop906" />
      <stop
         offset=".307"
         stop-color="#ef802e"
         id="stop908" />
      <stop
         offset=".358"
         stop-color="#ef6d3a"
         id="stop910" />
      <stop
         offset=".46"
         stop-color="#f04b50"
         id="stop912" />
      <stop
         offset=".516"
         stop-color="#f03e58"
         id="stop914" />
      <stop
         offset=".689"
         stop-color="#db359e"
         id="stop916" />
      <stop
         offset=".724"
         stop-color="#ce37a4"
         id="stop918" />
      <stop
         offset=".789"
         stop-color="#ac3cb4"
         id="stop920" />
      <stop
         offset=".877"
         stop-color="#7544cf"
         id="stop922" />
      <stop
         offset=".98"
         stop-color="#2b4ff2"
         id="stop924" />
    </radialGradient>
  </defs>
  <sodipodi:namedview
     pagecolor="#ffffff"
     bordercolor="#666666"
     borderopacity="1"
     objecttolerance="10"
     gridtolerance="10"
     guidetolerance="10"
     inkscape:pageopacity="0"
     inkscape:pageshadow="2"
     inkscape:window-width="1360"
     inkscape:window-height="705"
     id="namedview10"
     showgrid="false"
     inkscape:zoom="0.4609375"
     inkscape:cx="-31.457627"
     inkscape:cy="256"
     inkscape:window-x="-8"
     inkscape:window-y="-8"
     inkscape:window-maximized="1"
     inkscape:current-layer="svg8" />
  <path
     inkscape:connector-curvature="0"
     style="fill:url(#TGwjmZMm2W~B4yrgup6jdb);stroke-width:11.09285259"
     d="M 400.20708,513.30509 H 111.79293 C 50.782238,513.30509 0.86440425,463.38726 0.86440425,402.37658 V 113.96243 C 0.86440425,52.951732 50.782238,3.0338951 111.79293,3.0338951 h 288.41415 c 61.01068,0 110.92851,49.9178369 110.92851,110.9285349 v 288.41415 c 0,61.01068 -49.91783,110.92851 -110.92851,110.92851 z"
     id="path927" />
  <path
     inkscape:connector-curvature="0"
     style="fill:#ffffff;stroke-width:11.09285259"
     d="m 256,102.86957 c 51.02712,0 56.57354,0 76.54068,1.10928 18.85784,1.10929 28.84142,4.43714 35.49712,6.65572 8.87428,3.32786 15.53,7.765 22.1857,14.4207 6.65572,6.65572 11.09286,13.31142 14.42072,22.1857 2.21856,6.65572 5.54642,16.63928 6.6557,35.49714 0,18.85784 0,24.40427 0,75.43139 0,51.02712 0,56.57354 -1.10928,76.54068 -1.10928,18.85784 -4.43714,28.84142 -6.65571,35.49712 -3.32785,8.87428 -7.76499,15.53 -14.42071,22.1857 -6.65571,6.65572 -13.31142,11.09286 -22.1857,14.42072 -6.65572,2.21856 -16.63928,5.54642 -35.49712,6.6557 -18.85786,0 -24.40428,0 -75.4314,0 -51.02712,0 -56.57355,0 -76.54068,-1.10928 -18.85785,-1.10928 -28.84141,-4.43714 -35.49713,-6.65572 -8.87428,-3.32784 -15.52998,-7.76498 -22.1857,-14.4207 -6.65572,-6.65571 -11.09286,-13.31142 -14.4207,-22.1857 -2.21858,-6.65572 -5.54644,-16.63928 -6.65572,-35.49713 0,-18.85785 0,-24.40427 0,-75.43139 0,-51.02712 0,-56.57355 1.10928,-76.54068 1.1093,-18.85785 4.43714,-28.84141 6.65572,-35.49713 3.32786,-8.87428 7.765,-15.52999 14.4207,-22.1857 6.65572,-6.65572 13.31142,-11.09286 22.1857,-14.42071 6.65572,-2.21857 16.63928,-5.54643 35.49714,-6.65571 18.85784,0 24.40427,0 75.43139,0 m 0,-33.278561 c -51.02712,0 -57.68283,0 -77.64997,1.109286 -19.96712,1.109285 -33.27856,4.43714 -45.48068,8.874281 -12.20214,4.437141 -23.295,11.092852 -33.278564,22.185714 -9.983569,11.09284 -16.639281,21.07642 -22.185707,33.27856 -4.437141,12.20212 -7.764996,25.51356 -8.874281,45.48068 -1.109286,19.96714 -1.109286,26.62285 -1.109286,77.64997 0,51.02712 0,57.68283 1.109286,77.64996 1.109285,19.96714 4.43714,33.27856 8.874281,45.4807 4.437141,12.20214 11.092852,23.29498 22.185707,33.27855 9.983564,9.98357 21.076424,16.63928 33.278564,22.18571 12.20212,4.43714 25.51356,7.76499 45.48068,8.87428 19.96714,1.10928 26.62285,1.10928 77.64997,1.10928 51.02712,0 57.68283,0 77.64996,-1.10928 19.96714,-1.10929 33.27856,-4.43714 45.4807,-8.87428 12.20214,-4.43714 23.29498,-11.09286 33.27855,-22.18571 9.98357,-9.98357 16.63928,-21.07641 22.18571,-33.27855 4.43714,-12.20214 7.76499,-25.51356 8.87428,-45.4807 1.10928,-19.96713 1.10928,-26.62284 1.10928,-77.64996 0,-51.02712 0,-57.68283 -1.10928,-77.64997 -1.10929,-19.96712 -4.43714,-33.27856 -8.87428,-45.48068 -4.43714,-12.20214 -11.09286,-23.295 -22.18571,-33.27856 C 401.31636,91.776714 391.3328,85.121002 379.13066,79.574576 366.92852,75.137435 353.6171,71.80958 333.64996,70.700295 313.68283,69.591009 307.02712,69.591009 256,69.591009 Z"
     id="path929" />
  <path
     inkscape:connector-curvature="0"
     style="fill:#ffffff;stroke-width:11.09285259"
     d="m 256,158.33383 c -55.46426,0 -99.83567,44.37141 -99.83567,99.83567 0,55.46426 44.37141,99.83566 99.83567,99.83566 55.46426,0 99.83566,-44.3714 99.83566,-99.83566 0,-55.46426 -44.3714,-99.83567 -99.83566,-99.83567 z m 0,166.39278 c -36.60641,0 -66.55711,-29.9507 -66.55711,-66.55711 0,-36.60641 29.9507,-66.55711 66.55711,-66.55711 36.60641,0 66.55711,29.9507 66.55711,66.55711 0,36.60641 -29.9507,66.55711 -66.55711,66.55711 z"
     id="path931" />
  <circle
     style="fill:#ffffff;stroke-width:11.09285259"
     cx="355.83575"
     cy="158.33383"
     r="22.185705"
     id="circle933" />
</svg>
