<?xml version="1.0" encoding="UTF-8" standalone="no"?>
<!-- Created with Inkscape (http://www.inkscape.org/) -->

<svg
   xmlns:dc="http://purl.org/dc/elements/1.1/"
   xmlns:cc="http://creativecommons.org/ns#"
   xmlns:rdf="http://www.w3.org/1999/02/22-rdf-syntax-ns#"
   xmlns:svg="http://www.w3.org/2000/svg"
   xmlns="http://www.w3.org/2000/svg"
   xmlns:sodipodi="http://sodipodi.sourceforge.net/DTD/sodipodi-0.dtd"
   xmlns:inkscape="http://www.inkscape.org/namespaces/inkscape"
   version="1.1"
   id="svg3713"
   xml:space="preserve"
   width="1866.6667"
   height="1306.6667"
   viewBox="0 0 1866.6667 1306.6667"
   sodipodi:docname="Logo Verded.svg"
   inkscape:version="0.92.4 (5da689c313, 2019-01-14)"
   inkscape:export-filename="C:\Users\ruanm\Downloads\Javascript-20200301T224022Z-001\Javascript\img\Logo Verde.png"
   inkscape:export-xdpi="53.829441"
   inkscape:export-ydpi="53.829441"><metadata
     id="metadata3719"><rdf:RDF><cc:Work
         rdf:about=""><dc:format>image/svg+xml</dc:format><dc:type
           rdf:resource="http://purl.org/dc/dcmitype/StillImage" /><dc:title></dc:title></cc:Work></rdf:RDF></metadata><defs
     id="defs3717"><clipPath
       clipPathUnits="userSpaceOnUse"
       id="clipPath3735"><path
         d="M 0,980 H 1400 V 0 H 0 Z"
         id="path3733"
         inkscape:connector-curvature="0" /></clipPath></defs><sodipodi:namedview
     pagecolor="#ffffff"
     bordercolor="#666666"
     borderopacity="1"
     objecttolerance="10"
     gridtolerance="10"
     guidetolerance="10"
     inkscape:pageopacity="0"
     inkscape:pageshadow="2"
     inkscape:window-width="1366"
     inkscape:window-height="715"
     id="namedview3715"
     showgrid="false"
     inkscape:zoom="0.50000001"
     inkscape:cx="436.93788"
     inkscape:cy="959.74901"
     inkscape:window-x="-8"
     inkscape:window-y="-8"
     inkscape:window-maximized="1"
     inkscape:current-layer="g3731" /><g
     id="g3721"
     inkscape:groupmode="layer"
     inkscape:label="RJ45_2"
     transform="matrix(1.3333333,0,0,-1.3333333,0,1306.6667)"><g
       id="g3729"
       transform="translate(132.651,-6.441)"><g
         id="g3731"
         clip-path="url(#clipPath3735)"><path
           d="M 72.294377,811.50183 H 58.5851 v 76.6437 h 13.709277 z"
           style="fill:#185a11;fill-opacity:1;fill-rule:nonzero;stroke:none;stroke-width:0.38072643"
           id="path3779"
           inkscape:connector-curvature="0" /><path
           d="M 77.76447,904.33002 H 53.598432 v 19.40756 H 77.76447 Z"
           style="fill:#188411;fill-opacity:1;fill-rule:nonzero;stroke:none;stroke-width:0.32115617"
           id="path3781"
           inkscape:connector-curvature="0" /><path
           d="M 77.76447,923.73758 H 53.598432 v 21.18476 H 77.76447 Z"
           style="fill:#d1d3d4;fill-opacity:1;fill-rule:nonzero;stroke:none;stroke-width:0.32115617"
           id="path3783"
           inkscape:connector-curvature="0" /><path
           d="M 76.157313,923.73758 H 55.205587 v 12.72211 h 20.951726 z"
           style="fill:#a7a9ac;fill-opacity:1;fill-rule:nonzero;stroke:none;stroke-width:0.32115617"
           id="path3785"
           inkscape:connector-curvature="0" /><path
           d="m 59.134077,943.59663 h -1.190522 v -7.13694 h 1.190522 z"
           style="fill:#808285;fill-opacity:1;fill-rule:nonzero;stroke:none;stroke-width:0.32115617"
           id="path3787"
           inkscape:connector-curvature="0" /><path
           d="M 61.991131,943.59663 H 60.80061 v -7.13694 h 1.190521 z"
           style="fill:#808285;fill-opacity:1;fill-rule:nonzero;stroke:none;stroke-width:0.32115617"
           id="path3789"
           inkscape:connector-curvature="0" /><path
           d="m 64.848185,943.59663 h -1.190521 v -7.13694 h 1.190521 z"
           style="fill:#808285;fill-opacity:1;fill-rule:nonzero;stroke:none;stroke-width:0.32115617"
           id="path3791"
           inkscape:connector-curvature="0" /><path
           d="m 67.705239,943.59663 h -1.190521 v -7.13694 h 1.190521 z"
           style="fill:#808285;fill-opacity:1;fill-rule:nonzero;stroke:none;stroke-width:0.32115617"
           id="path3793"
           inkscape:connector-curvature="0" /><path
           d="m 70.562293,943.59663 h -1.190522 v -7.13694 h 1.190522 z"
           style="fill:#808285;fill-opacity:1;fill-rule:nonzero;stroke:none;stroke-width:0.32115617"
           id="path3795"
           inkscape:connector-curvature="0" /><path
           d="m 73.41935,943.59663 h -1.190524 v -7.13694 h 1.190524 z"
           style="fill:#808285;fill-opacity:1;fill-rule:nonzero;stroke:none;stroke-width:0.32115617"
           id="path3797"
           inkscape:connector-curvature="0" /><path
           d="M 71.39556,927.85603 H 59.967343 v 7.39083 H 71.39556 Z"
           style="fill:#d1d3d4;fill-opacity:1;fill-rule:nonzero;stroke:none;stroke-width:0.32115617"
           id="path3799"
           inkscape:connector-curvature="0" /><g
           id="g3801"
           transform="matrix(0.32987577,0,0,0.31266709,65.681452,915.78283)"><path
             d="M 0,0 V 0 C -3.886,0 -7.037,3.151 -7.037,7.037 V 38.614 H 7.037 V 7.037 C 7.037,3.151 3.886,0 0,0"
             style="fill:#bcbec0;fill-opacity:1;fill-rule:nonzero;stroke:none"
             id="path3803"
             inkscape:connector-curvature="0" /></g><g
           id="g3805"
           transform="matrix(0.32987577,0,0,0.31266709,65.681385,904.33015)"
           style="fill:#18330e;fill-opacity:1"><path
             d="m 0,0 h -32.768 l 8.3,-50.703 H 0 24.468 L 32.768,0 Z"
             style="fill:#18330e;fill-opacity:1;fill-rule:nonzero;stroke:none"
             id="path3807"
             inkscape:connector-curvature="0" /></g><g
           id="g3809"
           transform="matrix(0.32987577,0,0,0.31266709,64.65468,888.47686)"
           style="fill:#188411;fill-opacity:1"><path
             d="M 0,0 H -27.878 V -17.593 H 34.103 V 0 H 6.225 Z"
             style="fill:#188411;fill-opacity:1;fill-rule:nonzero;stroke:none"
             id="path3811"
             inkscape:connector-curvature="0" /></g><path
           d="M 77.892792,903.17097 H 53.47011 V 901.4613 H 77.892792 Z M 77.290107,900.2147 H 54.072793 v -1.70966 H 77.290107 Z M 76.78474,897.25843 H 54.578163 v -1.70966 H 76.78474 Z m -0.780484,-2.95627 H 55.358649 v -1.70966 h 20.645607 z m -0.761025,-4.66593 H 56.120003 v 1.70966 h 19.123228 z"
           style="fill:#188411;fill-opacity:1;fill-rule:nonzero;stroke:none;stroke-width:0.32115617"
           id="path3813"
           inkscape:connector-curvature="0" /><path
           style="fill:#ffff00;fill-opacity:1;stroke:#00f000;stroke-width:1.34265351px;stroke-linecap:butt;stroke-linejoin:miter;stroke-opacity:1"
           d="m 181.41634,939.81543 h 14.27812"
           id="path4874-9"
           inkscape:connector-curvature="0" /><path
           style="fill:none;stroke:#fb0000;stroke-width:1.34265351px;stroke-linecap:butt;stroke-linejoin:miter;stroke-opacity:1"
           d="m 181.40355,941.2581 h 14.27816"
           id="path4874-0-9"
           inkscape:connector-curvature="0" /><path
           style="fill:none;stroke:#850000;stroke-width:1.34265351px;stroke-linecap:butt;stroke-linejoin:miter;stroke-opacity:1"
           d="m 181.40354,932.48569 h 14.27814"
           id="path4874-2-8"
           inkscape:connector-curvature="0" /><path
           style="opacity:1;fill:#ff6ce8;fill-opacity:1;stroke:#ff7500;stroke-width:1.34265351px;stroke-linecap:butt;stroke-linejoin:miter;stroke-opacity:0.76381908"
           d="M 181.40355,938.33396 H 195.6817"
           id="path4874-3-3"
           inkscape:connector-curvature="0" /><path
           style="fill:none;stroke:#0076d0;stroke-width:1.34265351px;stroke-linecap:butt;stroke-linejoin:miter;stroke-opacity:1"
           d="M 181.40357,936.87189 H 195.6817"
           id="path4874-4-9"
           inkscape:connector-curvature="0" /><a
           id="a4927-1"
           transform="matrix(-2,0,0,-1.6024164,393.62526,2438.9356)"
           style="stroke:#0000b7;stroke-opacity:1"><path
             inkscape:connector-curvature="0"
             id="path4874-8-3"
             d="M 106.11088,938.28654 H 98.971814"
             style="fill:none;stroke:#0000b7;stroke-width:0.75px;stroke-linecap:butt;stroke-linejoin:miter;stroke-opacity:1" /></a><path
           style="fill:none;stroke:#00a800;stroke-width:1.34265351px;stroke-linecap:butt;stroke-linejoin:miter;stroke-opacity:1"
           d="m 181.40353,933.94775 h 14.27814"
           id="path4874-6-6"
           inkscape:connector-curvature="0" /><path
           style="fill:none;stroke:#ff5200;stroke-width:1.34265351px;stroke-linecap:butt;stroke-linejoin:miter;stroke-opacity:1"
           d="M 181.40355,942.72016 H 195.6817"
           id="path4874-5-6"
           inkscape:connector-curvature="0" /><rect
           style="opacity:1;fill:#b0b0b0;fill-opacity:1;stroke:#000303;stroke-width:0.79844832;stroke-opacity:0"
           id="rect868-2"
           width="8.7624664"
           height="12.908148"
           x="-182.2547"
           y="931.28235"
           transform="scale(-1,1)" /><path
           style="fill:none;fill-opacity:1;stroke:#185a11;stroke-width:12.90000057;stroke-linecap:butt;stroke-linejoin:miter;stroke-miterlimit:4;stroke-dasharray:none;stroke-opacity:1"
           d="m 136.57695,854.82239 c -0.15713,27.65443 2.43907,55.83469 -5.49584,69.87414 -7.3026,17.02929 -56.998765,11.79336 -38.126065,13.02241 l 81.815355,-10e-4"
           id="path993"
           inkscape:connector-curvature="0"
           sodipodi:nodetypes="cccc" /><path
           d="m 124.97662,850.25651 h 23.21507 v -34.55232 h -23.21507 z"
           style="fill:#d1d3d4;fill-opacity:1;fill-rule:nonzero;stroke:none;stroke-width:0.31398019"
           id="path1594"
           inkscape:connector-curvature="0" /><path
           d="m 130.39059,812.89377 h 12.38713 v 2.81042 h -12.38713 z"
           style="fill:#a7a9ac;fill-opacity:1;fill-rule:nonzero;stroke:none;stroke-width:0.31398019"
           id="path1596"
           inkscape:connector-curvature="0" /><g
           id="g1598"
           transform="matrix(-0.32141805,0,0,-0.3067145,142.77785,815.70438)"><path
             d="m 0,0 v -39.348 h 11.319 v -37.595 c 0,-4.391 3.56,-7.951 7.95,-7.951 4.391,0 7.951,3.56 7.951,7.951 v 37.595 H 38.539 V 0 Z"
             style="fill:#bcbec0;fill-opacity:1;fill-rule:nonzero;stroke:none"
             id="path1600"
             inkscape:connector-curvature="0" /></g><path
           d="m 145.7952,836.25928 h -1.38597 v -20.55509 h 1.38597 z"
           style="fill:#808285;fill-opacity:1;fill-rule:nonzero;stroke:none;stroke-width:0.31398019"
           id="path1602"
           inkscape:connector-curvature="0" /><path
           d="m 142.38816,836.25928 h -1.38595 v -8.48648 h 1.38595 z"
           style="fill:#808285;fill-opacity:1;fill-rule:nonzero;stroke:none;stroke-width:0.31398019"
           id="path1604"
           inkscape:connector-curvature="0" /><path
           d="m 132.16642,836.25928 h -1.38595 v -8.48648 h 1.38595 z"
           style="fill:#808285;fill-opacity:1;fill-rule:nonzero;stroke:none;stroke-width:0.31398019"
           id="path1606"
           inkscape:connector-curvature="0" /><path
           d="m 128.7594,836.25928 h -1.38596 v -20.55509 h 1.38596 z"
           style="fill:#808285;fill-opacity:1;fill-rule:nonzero;stroke:none;stroke-width:0.31398019"
           id="path1608"
           inkscape:connector-curvature="0" /><path
           d="m 123.5588,855.54885 h 26.05108 v -5.29198 H 123.5588 Z"
           style="fill:#188411;fill-opacity:1;fill-rule:nonzero;stroke:none;stroke-width:0.31252223;stroke-opacity:1"
           id="path1610"
           inkscape:connector-curvature="0" /><g
           aria-label=" INTECH
NOLOGY"
           transform="matrix(0.7850505,0,0,-0.98861708,-202.91038,1002.6793)"
           style="font-style:normal;font-weight:normal;font-size:40px;line-height:0.5;font-family:sans-serif;letter-spacing:0px;word-spacing:0px;fill:#28ac45;fill-opacity:1;stroke:none"
           id="flowRoot2173"><path
             d="M 531.2834,117.81607 V 58.082736 h -10.66667 v 59.733334 z"
             style="letter-spacing:0.62147129px;fill:#28ac45;fill-opacity:1"
             id="path1574"
             inkscape:connector-curvature="0" /><path
             d="m 589.47153,58.082736 v 38.058668 l -38.4,-29.610668 -10.66666,-8.192 V 117.9014 h 10.66666 V 80.098736 l 38.4,29.610664 10.66667,8.192 V 58.168069 Z"
             style="line-height:0.99000001;letter-spacing:0.62147129px;fill:#28ac45;fill-opacity:1"
             id="path1576"
             inkscape:connector-curvature="0" /><path
             d="m 609.35967,58.168069 v 10.666667 h 24.49067 V 117.9014 H 644.517 V 68.834736 h 24.49067 V 58.168069 Z"
             style="line-height:0.99000001;letter-spacing:0.62147129px;fill:#28ac45;fill-opacity:1"
             id="path1578"
             inkscape:connector-curvature="0" /><path
             d="m 694.44249,68.749403 h 43.60533 V 58.082736 h -43.60533 c -8.87467,0 -16.04267,7.253333 -16.04267,16.128 v 27.477334 c 0,8.87467 7.168,16.128 16.04267,16.128 h 43.60533 V 107.1494 h -43.60533 c -2.98667,0 -5.46134,-2.47466 -5.46134,-5.46133 v -11.264 h 38.40001 V 79.757403 h -38.40001 v -5.546667 c 0,-2.986667 2.47467,-5.461333 5.46134,-5.461333 z"
             style="line-height:0.99000001;letter-spacing:0.62147129px;fill:#28ac45;fill-opacity:1"
             id="path1580"
             inkscape:connector-curvature="0" /><path
             d="m 771.61597,68.749403 h 29.86667 V 58.082736 h -29.86667 c -16.46933,0 -29.86667,13.397333 -29.86667,29.866667 0,16.469337 13.39734,29.866667 29.86667,29.866667 h 29.86667 V 107.1494 h -29.86667 c -10.58133,0 -19.2,-8.618663 -19.2,-19.199997 0,-10.581333 8.61867,-19.2 19.2,-19.2 z"
             style="line-height:0.99000001;letter-spacing:0.62147129px;fill:#28ac45;fill-opacity:1"
             id="path1582"
             inkscape:connector-curvature="0" /><path
             d="m 859.62411,58.082736 v 21.674667 h -38.4 V 58.082736 h -10.66667 v 59.733334 h 10.66667 v -27.392 h 38.4 v 27.392 h 10.66666 V 58.082736 Z"
             style="line-height:0.99000001;letter-spacing:0.62147129px;fill:#28ac45;fill-opacity:1"
             id="path1584"
             inkscape:connector-curvature="0" /><path
             d="m 523.33333,130.18941 v 38.05867 l -38.4,-29.61067 -10.66666,-8.192 v 59.56267 h 10.66666 v -37.80267 l 38.4,29.61067 10.66667,8.192 v -59.73333 z"
             style="font-style:normal;font-variant:normal;font-weight:normal;font-stretch:normal;font-size:85.33333588px;line-height:0.69999999;font-family:Azonix;-inkscape-font-specification:'Azonix, Normal';font-variant-ligatures:normal;font-variant-caps:normal;font-variant-numeric:normal;font-feature-settings:normal;text-align:start;letter-spacing:4.00125551px;writing-mode:lr-tb;text-anchor:start;fill:#28ac45;fill-opacity:1"
             id="path1586"
             inkscape:connector-curvature="0" /><path
             d="m 574.3346,130.18941 c -16.46934,0 -29.86667,13.39734 -29.86667,29.86667 0,16.46933 13.39733,29.86667 29.86667,29.86667 16.46933,0 29.86666,-13.39734 29.86666,-29.86667 0,-16.46933 -13.39733,-29.86667 -29.86666,-29.86667 z m 0,49.06667 c -10.58134,0 -19.2,-8.61867 -19.2,-19.2 0,-10.58133 8.61866,-19.2 19.2,-19.2 10.58133,0 19.2,8.61867 19.2,19.2 0,10.58133 -8.61867,19.2 -19.2,19.2 z"
             style="font-style:normal;font-variant:normal;font-weight:normal;font-stretch:normal;font-size:85.33333588px;line-height:0.69999999;font-family:Azonix;-inkscape-font-specification:'Azonix, Normal';font-variant-ligatures:normal;font-variant-caps:normal;font-variant-numeric:normal;font-feature-settings:normal;text-align:start;letter-spacing:4.00125551px;writing-mode:lr-tb;text-anchor:start;fill:#28ac45;fill-opacity:1"
             id="path1588"
             inkscape:connector-curvature="0" /><path
             d="m 632.52251,179.25608 c -3.75466,-0.512 -6.74133,-3.49867 -7.25333,-7.25333 v -41.728 h -10.66667 v 40.704 c 0,2.98666 0.68267,5.80266 1.96267,8.36266 1.792,3.75467 4.864,6.82667 8.61867,8.704 2.56,1.28 5.376,1.96267 8.36266,1.96267 h 30.29334 v -10.66667 z"
             style="font-style:normal;font-variant:normal;font-weight:normal;font-stretch:normal;font-size:85.33333588px;line-height:0.69999999;font-family:Azonix;-inkscape-font-specification:'Azonix, Normal';font-variant-ligatures:normal;font-variant-caps:normal;font-variant-numeric:normal;font-feature-settings:normal;text-align:start;letter-spacing:4.00125551px;writing-mode:lr-tb;text-anchor:start;fill:#28ac45;fill-opacity:1"
             id="path1590"
             inkscape:connector-curvature="0" /><path
             d="m 697.67044,130.18941 c -16.46933,0 -29.86667,13.39734 -29.86667,29.86667 0,16.46933 13.39734,29.86667 29.86667,29.86667 16.46934,0 29.86667,-13.39734 29.86667,-29.86667 0,-16.46933 -13.39733,-29.86667 -29.86667,-29.86667 z m 0,49.06667 c -10.58133,0 -19.2,-8.61867 -19.2,-19.2 0,-10.58133 8.61867,-19.2 19.2,-19.2 10.58134,0 19.2,8.61867 19.2,19.2 0,10.58133 -8.61866,19.2 -19.2,19.2 z"
             style="font-style:normal;font-variant:normal;font-weight:normal;font-stretch:normal;font-size:85.33333588px;line-height:0.69999999;font-family:Azonix;-inkscape-font-specification:'Azonix, Normal';font-variant-ligatures:normal;font-variant-caps:normal;font-variant-numeric:normal;font-feature-settings:normal;text-align:start;letter-spacing:4.00125551px;writing-mode:lr-tb;text-anchor:start;fill:#28ac45;fill-opacity:1"
             id="path1592"
             inkscape:connector-curvature="0" /><path
             d="m 767.80503,140.85608 h 29.86666 v -10.66667 h -29.86666 c -16.46934,0 -29.86667,13.39734 -29.86667,29.86667 0,16.46933 13.39733,29.86667 29.86667,29.86667 h 29.86666 v -32.768 h -29.86666 v 10.66666 h 19.2 v 11.43467 h -19.2 c -10.58134,0 -19.2,-8.61867 -19.2,-19.2 0,-10.58133 8.61866,-19.2 19.2,-19.2 z"
             style="font-style:normal;font-variant:normal;font-weight:normal;font-stretch:normal;font-size:85.33333588px;line-height:0.69999999;font-family:Azonix;-inkscape-font-specification:'Azonix, Normal';font-variant-ligatures:normal;font-variant-caps:normal;font-variant-numeric:normal;font-feature-settings:normal;text-align:start;letter-spacing:4.00125551px;writing-mode:lr-tb;text-anchor:start;fill:#28ac45;fill-opacity:1"
             id="path1595"
             inkscape:connector-curvature="0" /><path
             d="m 853.19562,130.10408 -16.384,21.248 -16.384,-21.248 h -13.48267 l 23.12534,29.952 1.45066,1.792 v 27.98933 h 10.66667 v -28.16 l 1.28,-1.62133 23.12534,-29.952 z m -46.336,59.98933 0.17067,-0.17066 h -0.17067 z m 59.73334,0 v -0.17066 h -0.0853 z"
             style="font-style:normal;font-variant:normal;font-weight:normal;font-stretch:normal;font-size:85.33333588px;line-height:0.69999999;font-family:Azonix;-inkscape-font-specification:'Azonix, Normal';font-variant-ligatures:normal;font-variant-caps:normal;font-variant-numeric:normal;font-feature-settings:normal;text-align:start;letter-spacing:4.00125551px;writing-mode:lr-tb;text-anchor:start;fill:#28ac45;fill-opacity:1"
             id="path1597"
             inkscape:connector-curvature="0" /></g></g></g></g></svg>