<?xml version="1.0" encoding="UTF-8" standalone="no"?>
<!-- Created with Inkscape (http://www.inkscape.org/) -->

<svg
   xmlns:dc="http://purl.org/dc/elements/1.1/"
   xmlns:cc="http://creativecommons.org/ns#"
   xmlns:rdf="http://www.w3.org/1999/02/22-rdf-syntax-ns#"
   xmlns:svg="http://www.w3.org/2000/svg"
   xmlns="http://www.w3.org/2000/svg"
   xmlns:sodipodi="http://sodipodi.sourceforge.net/DTD/sodipodi-0.dtd"
   xmlns:inkscape="http://www.inkscape.org/namespaces/inkscape"
   width="150.58028mm"
   height="47.1861mm"
   viewBox="0 0 150.58028 47.1861"
   version="1.1"
   id="svg1665"
   inkscape:version="0.92.4 (5da689c313, 2019-01-14)"
   sodipodi:docname="drawing.svg">
  <defs
     id="defs1659" />
  <sodipodi:namedview
     id="base"
     pagecolor="#ffffff"
     bordercolor="#666666"
     borderopacity="1.0"
     inkscape:pageopacity="0.0"
     inkscape:pageshadow="2"
     inkscape:zoom="0.35"
     inkscape:cx="226.13347"
     inkscape:cy="152.44711"
     inkscape:document-units="mm"
     inkscape:current-layer="layer1"
     showgrid="false"
     inkscape:window-width="1366"
     inkscape:window-height="715"
     inkscape:window-x="-8"
     inkscape:window-y="-8"
     inkscape:window-maximized="1" />
  <metadata
     id="metadata1662">
    <rdf:RDF>
      <cc:Work
         rdf:about="">
        <dc:format>image/svg+xml</dc:format>
        <dc:type
           rdf:resource="http://purl.org/dc/dcmitype/StillImage" />
        <dc:title></dc:title>
      </cc:Work>
    </rdf:RDF>
  </metadata>
  <g
     inkscape:label="Layer 1"
     inkscape:groupmode="layer"
     id="layer1"
     transform="translate(-0.82660559,-1.1788977)">
    <path
       d="M 7.4673886,48.364999 H 2.6310606 V 21.326807 h 4.836328 z"
       style="fill:#185a11;fill-opacity:1;fill-rule:nonzero;stroke:none;stroke-width:0.13431183"
       id="path3779"
       inkscape:connector-curvature="0" />
    <path
       d="M 9.3971166,15.617278 H 0.87187559 V 8.7707226 H 9.3971166 Z"
       style="fill:#188411;fill-opacity:1;fill-rule:nonzero;stroke:none;stroke-width:0.11329676"
       id="path3781"
       inkscape:connector-curvature="0" />
    <path
       d="M 9.3971166,8.7707226 H 0.87187559 V 1.2972106 H 9.3971166 Z"
       style="fill:#d1d3d4;fill-opacity:1;fill-rule:nonzero;stroke:none;stroke-width:0.11329676"
       id="path3783"
       inkscape:connector-curvature="0" />
    <path
       d="m 8.8301466,8.7707226 h -7.391303 v -4.488077 h 7.391303 z"
       style="fill:#a7a9ac;fill-opacity:1;fill-rule:nonzero;stroke:none;stroke-width:0.11329676"
       id="path3785"
       inkscape:connector-curvature="0" />
    <path
       d="m 2.8247276,1.7648916 h -0.41999 v 2.517754 h 0.41999 z"
       style="fill:#808285;fill-opacity:1;fill-rule:nonzero;stroke:none;stroke-width:0.11329676"
       id="path3787"
       inkscape:connector-curvature="0" />
    <path
       d="m 3.8326326,1.7648916 h -0.419989 v 2.517754 h 0.419989 z"
       style="fill:#808285;fill-opacity:1;fill-rule:nonzero;stroke:none;stroke-width:0.11329676"
       id="path3789"
       inkscape:connector-curvature="0" />
    <path
       d="m 4.8405376,1.7648916 h -0.419989 v 2.517754 h 0.419989 z"
       style="fill:#808285;fill-opacity:1;fill-rule:nonzero;stroke:none;stroke-width:0.11329676"
       id="path3791"
       inkscape:connector-curvature="0" />
    <path
       d="m 5.8484436,1.7648916 h -0.41999 v 2.517754 h 0.41999 z"
       style="fill:#808285;fill-opacity:1;fill-rule:nonzero;stroke:none;stroke-width:0.11329676"
       id="path3793"
       inkscape:connector-curvature="0" />
    <path
       d="m 6.8563486,1.7648916 h -0.41999 v 2.517754 h 0.41999 z"
       style="fill:#808285;fill-opacity:1;fill-rule:nonzero;stroke:none;stroke-width:0.11329676"
       id="path3795"
       inkscape:connector-curvature="0" />
    <path
       d="m 7.8642546,1.7648916 h -0.41999 v 2.517754 h 0.41999 z"
       style="fill:#808285;fill-opacity:1;fill-rule:nonzero;stroke:none;stroke-width:0.11329676"
       id="path3797"
       inkscape:connector-curvature="0" />
    <path
       d="m 7.1503066,7.3178256 h -4.031621 v -2.607321 h 4.031621 z"
       style="fill:#d1d3d4;fill-opacity:1;fill-rule:nonzero;stroke:none;stroke-width:0.11329676"
       id="path3799"
       inkscape:connector-curvature="0" />
    <g
       id="g3801"
       transform="matrix(0.11637284,0,0,-0.110302,5.1344946,11.576982)">
      <path
         d="M 0,0 V 0 C -3.886,0 -7.037,3.151 -7.037,7.037 V 38.614 H 7.037 V 7.037 C 7.037,3.151 3.886,0 0,0"
         style="fill:#bcbec0;fill-opacity:1;fill-rule:nonzero;stroke:none"
         id="path3803"
         inkscape:connector-curvature="0" />
    </g>
    <g
       id="g3805"
       transform="matrix(0.11637284,0,0,-0.110302,5.1344706,15.617234)"
       style="fill:#18330e;fill-opacity:1">
      <path
         d="m 0,0 h -32.768 l 8.3,-50.703 H 0 24.468 L 32.768,0 Z"
         style="fill:#18330e;fill-opacity:1;fill-rule:nonzero;stroke:none"
         id="path3807"
         inkscape:connector-curvature="0" />
    </g>
    <g
       id="g3809"
       transform="matrix(0.11637284,0,0,-0.110302,4.7722716,21.209922)"
       style="fill:#188411;fill-opacity:1">
      <path
         d="M 0,0 H -27.878 V -17.593 H 34.103 V 0 H 6.225 Z"
         style="fill:#188411;fill-opacity:1;fill-rule:nonzero;stroke:none"
         id="path3811"
         inkscape:connector-curvature="0" />
    </g>
    <path
       d="M 9.4423856,16.026166 H 0.82660559 v 0.603133 H 9.4423856 Z m -0.212614,1.042906 h -8.190552 v 0.60313 h 8.190552 z m -0.178282,1.042906 h -7.833987 v 0.60313 h 7.833987 z m -0.275338,1.042907 h -7.283311 v 0.60313 h 7.283311 z m -0.268473,1.646036 h -6.746249 v -0.60313 h 6.746249 z"
       style="fill:#188411;fill-opacity:1;fill-rule:nonzero;stroke:none;stroke-width:0.11329676"
       id="path3813"
       inkscape:connector-curvature="0" />
    <path
       style="fill:#ffff00;fill-opacity:1;stroke:#00f000;stroke-width:0.47365832px;stroke-linecap:butt;stroke-linejoin:miter;stroke-opacity:1"
       d="m 45.963192,3.0988146 h 5.037002"
       id="path4874-9"
       inkscape:connector-curvature="0" />
    <path
       style="fill:none;stroke:#fb0000;stroke-width:0.47365832px;stroke-linecap:butt;stroke-linejoin:miter;stroke-opacity:1"
       d="m 45.958681,2.5898726 h 5.037015"
       id="path4874-0-9"
       inkscape:connector-curvature="0" />
    <path
       style="fill:none;stroke:#850000;stroke-width:0.47365832px;stroke-linecap:butt;stroke-linejoin:miter;stroke-opacity:1"
       d="m 45.958675,5.6845846 h 5.037011"
       id="path4874-2-8"
       inkscape:connector-curvature="0" />
    <path
       style="opacity:1;fill:#ff6ce8;fill-opacity:1;stroke:#ff7500;stroke-width:0.47365832px;stroke-linecap:butt;stroke-linejoin:miter;stroke-opacity:0.76381908"
       d="m 45.958681,3.6214446 h 5.037013"
       id="path4874-3-3"
       inkscape:connector-curvature="0" />
    <path
       style="fill:none;stroke:#0076d0;stroke-width:0.47365832px;stroke-linecap:butt;stroke-linejoin:miter;stroke-opacity:1"
       d="m 45.958686,4.1372306 h 5.037008"
       id="path4874-4-9"
       inkscape:connector-curvature="0" />
    <a
       id="a4927-1"
       transform="matrix(-0.70555554,0,0,0.56529687,120.82578,-525.75746)"
       style="stroke:#0000b7;stroke-opacity:1">
      <path
         inkscape:connector-curvature="0"
         id="path4874-8-3"
         d="M 106.11088,938.28654 H 98.971814"
         style="fill:none;stroke:#0000b7;stroke-width:0.75px;stroke-linecap:butt;stroke-linejoin:miter;stroke-opacity:1" />
    </a>
    <path
       style="fill:none;stroke:#00a800;stroke-width:0.47365832px;stroke-linecap:butt;stroke-linejoin:miter;stroke-opacity:1"
       d="m 45.958673,5.1688016 h 5.03701"
       id="path4874-6-6"
       inkscape:connector-curvature="0" />
    <path
       style="fill:none;stroke:#ff5200;stroke-width:0.47365832px;stroke-linecap:butt;stroke-linejoin:miter;stroke-opacity:1"
       d="m 45.958681,2.0740906 h 5.037013"
       id="path4874-5-6"
       inkscape:connector-curvature="0" />
    <rect
       style="opacity:1;fill:#b0b0b0;fill-opacity:1;stroke:#000303;stroke-width:0.2816748;stroke-opacity:0"
       id="rect868-2"
       width="3.0912035"
       height="4.5537076"
       x="-46.258949"
       y="-6.1090961"
       transform="scale(-1)" />
    <path
       style="fill:none;fill-opacity:1;stroke:#185a11;stroke-width:4.5508337;stroke-linecap:butt;stroke-linejoin:miter;stroke-miterlimit:4;stroke-dasharray:none;stroke-opacity:1"
       d="M 30.144852,33.08247 C 30.089422,23.326602 31.005301,13.385233 28.206041,8.4324266 25.629846,2.4248716 8.0981446,4.2719916 14.756013,3.8384096 l 28.86264,3.44e-4"
       id="path993"
       inkscape:connector-curvature="0"
       sodipodi:nodetypes="cccc" />
    <path
       d="m 26.052513,34.693211 h 8.189761 v 12.189291 h -8.189761 z"
       style="fill:#d1d3d4;fill-opacity:1;fill-rule:nonzero;stroke:none;stroke-width:0.11076523"
       id="path1594"
       inkscape:connector-curvature="0" />
    <path
       d="m 27.962442,47.873954 h 4.369903 v -0.991452 h -4.369903 z"
       style="fill:#a7a9ac;fill-opacity:1;fill-rule:nonzero;stroke:none;stroke-width:0.11076523"
       id="path1596"
       inkscape:connector-curvature="0" />
    <g
       id="g1598"
       transform="matrix(-0.11338914,0,0,0.10820206,32.33239,46.882436)">
      <path
         d="m 0,0 v -39.348 h 11.319 v -37.595 c 0,-4.391 3.56,-7.951 7.95,-7.951 4.391,0 7.951,3.56 7.951,7.951 v 37.595 H 38.539 V 0 Z"
         style="fill:#bcbec0;fill-opacity:1;fill-rule:nonzero;stroke:none"
         id="path1600"
         inkscape:connector-curvature="0" />
    </g>
    <path
       d="m 33.396846,39.631122 h -0.488939 v 7.25138 h 0.488939 z"
       style="fill:#808285;fill-opacity:1;fill-rule:nonzero;stroke:none;stroke-width:0.11076523"
       id="path1602"
       inkscape:connector-curvature="0" />
    <path
       d="m 32.194918,39.631122 h -0.488934 v 2.993842 h 0.488934 z"
       style="fill:#808285;fill-opacity:1;fill-rule:nonzero;stroke:none;stroke-width:0.11076523"
       id="path1604"
       inkscape:connector-curvature="0" />
    <path
       d="m 28.588914,39.631122 h -0.488931 v 2.993842 h 0.488931 z"
       style="fill:#808285;fill-opacity:1;fill-rule:nonzero;stroke:none;stroke-width:0.11076523"
       id="path1606"
       inkscape:connector-curvature="0" />
    <path
       d="m 27.386994,39.631122 h -0.488936 v 7.25138 h 0.488936 z"
       style="fill:#808285;fill-opacity:1;fill-rule:nonzero;stroke:none;stroke-width:0.11076523"
       id="path1608"
       inkscape:connector-curvature="0" />
    <path
       d="m 25.552338,32.826192 h 9.190242 v 1.866892 h -9.190242 z"
       style="fill:#188411;fill-opacity:1;fill-rule:nonzero;stroke:none;stroke-width:0.1102509;stroke-opacity:1"
       id="path1610"
       inkscape:connector-curvature="0" />
    <g
       aria-label=" INTECH NOLOGY"
       transform="matrix(0.27694837,0,0,0.34876213,-89.618728,-19.078161)"
       style="font-style:normal;font-weight:normal;font-size:40px;line-height:0.5;font-family:sans-serif;letter-spacing:0px;word-spacing:0px;fill:#28ac45;fill-opacity:1;stroke:none"
       id="flowRoot2173">
      <path
         d="M 531.2834,117.81607 V 58.082736 h -10.66667 v 59.733334 z"
         style="letter-spacing:0.62147129px;fill:#28ac45;fill-opacity:1"
         id="path1574"
         inkscape:connector-curvature="0" />
      <path
         d="m 589.47153,58.082736 v 38.058668 l -38.4,-29.610668 -10.66666,-8.192 V 117.9014 h 10.66666 V 80.098736 l 38.4,29.610664 10.66667,8.192 V 58.168069 Z"
         style="line-height:0.99000001;letter-spacing:0.62147129px;fill:#28ac45;fill-opacity:1"
         id="path1576"
         inkscape:connector-curvature="0" />
      <path
         d="m 609.35967,58.168069 v 10.666667 h 24.49067 V 117.9014 H 644.517 V 68.834736 h 24.49067 V 58.168069 Z"
         style="line-height:0.99000001;letter-spacing:0.62147129px;fill:#28ac45;fill-opacity:1"
         id="path1578"
         inkscape:connector-curvature="0" />
      <path
         d="m 694.44249,68.749403 h 43.60533 V 58.082736 h -43.60533 c -8.87467,0 -16.04267,7.253333 -16.04267,16.128 v 27.477334 c 0,8.87467 7.168,16.128 16.04267,16.128 h 43.60533 V 107.1494 h -43.60533 c -2.98667,0 -5.46134,-2.47466 -5.46134,-5.46133 v -11.264 h 38.40001 V 79.757403 h -38.40001 v -5.546667 c 0,-2.986667 2.47467,-5.461333 5.46134,-5.461333 z"
         style="line-height:0.99000001;letter-spacing:0.62147129px;fill:#28ac45;fill-opacity:1"
         id="path1580"
         inkscape:connector-curvature="0" />
      <path
         d="m 771.61597,68.749403 h 29.86667 V 58.082736 h -29.86667 c -16.46933,0 -29.86667,13.397333 -29.86667,29.866667 0,16.469337 13.39734,29.866667 29.86667,29.866667 h 29.86667 V 107.1494 h -29.86667 c -10.58133,0 -19.2,-8.618663 -19.2,-19.199997 0,-10.581333 8.61867,-19.2 19.2,-19.2 z"
         style="line-height:0.99000001;letter-spacing:0.62147129px;fill:#28ac45;fill-opacity:1"
         id="path1582"
         inkscape:connector-curvature="0" />
      <path
         d="m 859.62411,58.082736 v 21.674667 h -38.4 V 58.082736 h -10.66667 v 59.733334 h 10.66667 v -27.392 h 38.4 v 27.392 h 10.66666 V 58.082736 Z"
         style="line-height:0.99000001;letter-spacing:0.62147129px;fill:#28ac45;fill-opacity:1"
         id="path1584"
         inkscape:connector-curvature="0" />
      <path
         d="m 523.33333,130.18941 v 38.05867 l -38.4,-29.61067 -10.66666,-8.192 v 59.56267 h 10.66666 v -37.80267 l 38.4,29.61067 10.66667,8.192 v -59.73333 z"
         style="font-style:normal;font-variant:normal;font-weight:normal;font-stretch:normal;font-size:85.33333588px;line-height:0.69999999;font-family:Azonix;-inkscape-font-specification:'Azonix, Normal';font-variant-ligatures:normal;font-variant-caps:normal;font-variant-numeric:normal;font-feature-settings:normal;text-align:start;letter-spacing:4.00125551px;writing-mode:lr-tb;text-anchor:start;fill:#28ac45;fill-opacity:1"
         id="path1586"
         inkscape:connector-curvature="0" />
      <path
         d="m 574.3346,130.18941 c -16.46934,0 -29.86667,13.39734 -29.86667,29.86667 0,16.46933 13.39733,29.86667 29.86667,29.86667 16.46933,0 29.86666,-13.39734 29.86666,-29.86667 0,-16.46933 -13.39733,-29.86667 -29.86666,-29.86667 z m 0,49.06667 c -10.58134,0 -19.2,-8.61867 -19.2,-19.2 0,-10.58133 8.61866,-19.2 19.2,-19.2 10.58133,0 19.2,8.61867 19.2,19.2 0,10.58133 -8.61867,19.2 -19.2,19.2 z"
         style="font-style:normal;font-variant:normal;font-weight:normal;font-stretch:normal;font-size:85.33333588px;line-height:0.69999999;font-family:Azonix;-inkscape-font-specification:'Azonix, Normal';font-variant-ligatures:normal;font-variant-caps:normal;font-variant-numeric:normal;font-feature-settings:normal;text-align:start;letter-spacing:4.00125551px;writing-mode:lr-tb;text-anchor:start;fill:#28ac45;fill-opacity:1"
         id="path1588"
         inkscape:connector-curvature="0" />
      <path
         d="m 632.52251,179.25608 c -3.75466,-0.512 -6.74133,-3.49867 -7.25333,-7.25333 v -41.728 h -10.66667 v 40.704 c 0,2.98666 0.68267,5.80266 1.96267,8.36266 1.792,3.75467 4.864,6.82667 8.61867,8.704 2.56,1.28 5.376,1.96267 8.36266,1.96267 h 30.29334 v -10.66667 z"
         style="font-style:normal;font-variant:normal;font-weight:normal;font-stretch:normal;font-size:85.33333588px;line-height:0.69999999;font-family:Azonix;-inkscape-font-specification:'Azonix, Normal';font-variant-ligatures:normal;font-variant-caps:normal;font-variant-numeric:normal;font-feature-settings:normal;text-align:start;letter-spacing:4.00125551px;writing-mode:lr-tb;text-anchor:start;fill:#28ac45;fill-opacity:1"
         id="path1590"
         inkscape:connector-curvature="0" />
      <path
         d="m 697.67044,130.18941 c -16.46933,0 -29.86667,13.39734 -29.86667,29.86667 0,16.46933 13.39734,29.86667 29.86667,29.86667 16.46934,0 29.86667,-13.39734 29.86667,-29.86667 0,-16.46933 -13.39733,-29.86667 -29.86667,-29.86667 z m 0,49.06667 c -10.58133,0 -19.2,-8.61867 -19.2,-19.2 0,-10.58133 8.61867,-19.2 19.2,-19.2 10.58134,0 19.2,8.61867 19.2,19.2 0,10.58133 -8.61866,19.2 -19.2,19.2 z"
         style="font-style:normal;font-variant:normal;font-weight:normal;font-stretch:normal;font-size:85.33333588px;line-height:0.69999999;font-family:Azonix;-inkscape-font-specification:'Azonix, Normal';font-variant-ligatures:normal;font-variant-caps:normal;font-variant-numeric:normal;font-feature-settings:normal;text-align:start;letter-spacing:4.00125551px;writing-mode:lr-tb;text-anchor:start;fill:#28ac45;fill-opacity:1"
         id="path1592"
         inkscape:connector-curvature="0" />
      <path
         d="m 767.80503,140.85608 h 29.86666 v -10.66667 h -29.86666 c -16.46934,0 -29.86667,13.39734 -29.86667,29.86667 0,16.46933 13.39733,29.86667 29.86667,29.86667 h 29.86666 v -32.768 h -29.86666 v 10.66666 h 19.2 v 11.43467 h -19.2 c -10.58134,0 -19.2,-8.61867 -19.2,-19.2 0,-10.58133 8.61866,-19.2 19.2,-19.2 z"
         style="font-style:normal;font-variant:normal;font-weight:normal;font-stretch:normal;font-size:85.33333588px;line-height:0.69999999;font-family:Azonix;-inkscape-font-specification:'Azonix, Normal';font-variant-ligatures:normal;font-variant-caps:normal;font-variant-numeric:normal;font-feature-settings:normal;text-align:start;letter-spacing:4.00125551px;writing-mode:lr-tb;text-anchor:start;fill:#28ac45;fill-opacity:1"
         id="path1595"
         inkscape:connector-curvature="0" />
      <path
         d="m 853.19562,130.10408 -16.384,21.248 -16.384,-21.248 h -13.48267 l 23.12534,29.952 1.45066,1.792 v 27.98933 h 10.66667 v -28.16 l 1.28,-1.62133 23.12534,-29.952 z m -46.336,59.98933 0.17067,-0.17066 h -0.17067 z m 59.73334,0 v -0.17066 h -0.0853 z"
         style="font-style:normal;font-variant:normal;font-weight:normal;font-stretch:normal;font-size:85.33333588px;line-height:0.69999999;font-family:Azonix;-inkscape-font-specification:'Azonix, Normal';font-variant-ligatures:normal;font-variant-caps:normal;font-variant-numeric:normal;font-feature-settings:normal;text-align:start;letter-spacing:4.00125551px;writing-mode:lr-tb;text-anchor:start;fill:#28ac45;fill-opacity:1"
         id="path1597"
         inkscape:connector-curvature="0" />
    </g>
  </g>
</svg>
