<?xml version="1.0" encoding="UTF-8" standalone="no"?>
<!-- Created with Inkscape (http://www.inkscape.org/) -->

<svg
   xmlns:dc="http://purl.org/dc/elements/1.1/"
   xmlns:cc="http://creativecommons.org/ns#"
   xmlns:rdf="http://www.w3.org/1999/02/22-rdf-syntax-ns#"
   xmlns:svg="http://www.w3.org/2000/svg"
   xmlns="http://www.w3.org/2000/svg"
   xmlns:sodipodi="http://sodipodi.sourceforge.net/DTD/sodipodi-0.dtd"
   xmlns:inkscape="http://www.inkscape.org/namespaces/inkscape"
   version="1.1"
   id="svg3713"
   xml:space="preserve"
   width="613.18616"
   height="259.9324"
   viewBox="0 0 613.18614 259.93239"
   sodipodi:docname="banner.svg"
   inkscape:version="0.92.4 (5da689c313, 2019-01-14)"
   inkscape:export-filename="C:\Users\ruanm\Downloads\Javascript-20200301T224022Z-001\Javascript\img\Logo Verde.png"
   inkscape:export-xdpi="53.829441"
   inkscape:export-ydpi="53.829441"
   enable-background="new"><metadata
     id="metadata3719"><rdf:RDF><cc:Work
         rdf:about=""><dc:format>image/svg+xml</dc:format><dc:type
           rdf:resource="http://purl.org/dc/dcmitype/StillImage" /><dc:title></dc:title></cc:Work></rdf:RDF></metadata><defs
     id="defs3717"><clipPath
       clipPathUnits="userSpaceOnUse"
       id="clipPath3735"><path
         d="M 0,980 H 1400 V 0 H 0 Z"
         id="path3733"
         inkscape:connector-curvature="0" /></clipPath><filter
       style="color-interpolation-filters:sRGB"
       inkscape:label="Drop Shadow"
       id="filter1270"><feFlood
         flood-opacity="0.498039"
         flood-color="rgb(0,255,0)"
         result="flood"
         id="feFlood1260" /><feComposite
         in="flood"
         in2="SourceGraphic"
         operator="in"
         result="composite1"
         id="feComposite1262" /><feGaussianBlur
         in="composite1"
         stdDeviation="1.6"
         result="blur"
         id="feGaussianBlur1264" /><feOffset
         dx="7.6"
         dy="8.1"
         result="offset"
         id="feOffset1266" /><feComposite
         in="SourceGraphic"
         in2="offset"
         operator="over"
         result="composite2"
         id="feComposite1268" /></filter><filter
       style="color-interpolation-filters:sRGB"
       inkscape:label="Drop Shadow"
       id="filter1294"><feFlood
         flood-opacity="1"
         flood-color="rgb(0,126,0)"
         result="flood"
         id="feFlood1284" /><feComposite
         in="flood"
         in2="SourceGraphic"
         operator="in"
         result="composite1"
         id="feComposite1286" /><feGaussianBlur
         in="composite1"
         stdDeviation="1.6"
         result="blur"
         id="feGaussianBlur1288" /><feOffset
         dx="7.6"
         dy="8.1"
         result="offset"
         id="feOffset1290" /><feComposite
         in="SourceGraphic"
         in2="offset"
         operator="over"
         result="composite2"
         id="feComposite1292" /></filter><filter
       style="color-interpolation-filters:sRGB"
       inkscape:label="Drop Shadow"
       id="filter1378"><feFlood
         flood-opacity="1"
         flood-color="rgb(0,126,0)"
         result="flood"
         id="feFlood1368" /><feComposite
         in="flood"
         in2="SourceGraphic"
         operator="in"
         result="composite1"
         id="feComposite1370" /><feGaussianBlur
         in="composite1"
         stdDeviation="1.6"
         result="blur"
         id="feGaussianBlur1372" /><feOffset
         dx="5.46875"
         dy="3.1"
         result="offset"
         id="feOffset1374" /><feComposite
         in="SourceGraphic"
         in2="offset"
         operator="over"
         result="composite2"
         id="feComposite1376" /></filter><filter
       style="color-interpolation-filters:sRGB;"
       inkscape:label="Drop Shadow"
       id="filter1647"><feFlood
         flood-opacity="0.639216"
         flood-color="rgb(0,0,0)"
         result="flood"
         id="feFlood1637" /><feComposite
         in="flood"
         in2="SourceGraphic"
         operator="in"
         result="composite1"
         id="feComposite1639" /><feGaussianBlur
         in="composite1"
         stdDeviation="3.1"
         result="blur"
         id="feGaussianBlur1641" /><feOffset
         dx="6.51042"
         dy="6.5"
         result="offset"
         id="feOffset1643" /><feComposite
         in="SourceGraphic"
         in2="offset"
         operator="over"
         result="composite2"
         id="feComposite1645" /></filter><filter
       style="color-interpolation-filters:sRGB;"
       inkscape:label="Drop Shadow"
       id="filter1659"><feFlood
         flood-opacity="0.639216"
         flood-color="rgb(0,0,0)"
         result="flood"
         id="feFlood1649" /><feComposite
         in="flood"
         in2="SourceGraphic"
         operator="in"
         result="composite1"
         id="feComposite1651" /><feGaussianBlur
         in="composite1"
         stdDeviation="3.1"
         result="blur"
         id="feGaussianBlur1653" /><feOffset
         dx="6.5"
         dy="6.5"
         result="offset"
         id="feOffset1655" /><feComposite
         in="SourceGraphic"
         in2="offset"
         operator="over"
         result="composite2"
         id="feComposite1657" /></filter><filter
       style="color-interpolation-filters:sRGB;"
       inkscape:label="Drop Shadow"
       id="filter1923"><feFlood
         flood-opacity="0.639216"
         flood-color="rgb(0,0,0)"
         result="flood"
         id="feFlood1913" /><feComposite
         in="flood"
         in2="SourceGraphic"
         operator="in"
         result="composite1"
         id="feComposite1915" /><feGaussianBlur
         in="composite1"
         stdDeviation="2"
         result="blur"
         id="feGaussianBlur1917" /><feOffset
         dx="3.6"
         dy="3.1"
         result="offset"
         id="feOffset1919" /><feComposite
         in="SourceGraphic"
         in2="offset"
         operator="over"
         result="composite2"
         id="feComposite1921" /></filter><filter
       inkscape:menu-tooltip="In and out glow with a possible offset and colorizable flood"
       inkscape:menu="Shadows and Glows"
       inkscape:label="Cutout Glow"
       style="color-interpolation-filters:sRGB;"
       id="filter950"><feOffset
         dy="3"
         dx="3"
         id="feOffset940" /><feGaussianBlur
         stdDeviation="3"
         result="blur"
         id="feGaussianBlur942" /><feFlood
         flood-color="rgb(0,0,0)"
         flood-opacity="1"
         result="flood"
         id="feFlood944" /><feComposite
         in="flood"
         in2="SourceGraphic"
         operator="in"
         result="composite"
         id="feComposite946" /><feBlend
         in="blur"
         in2="composite"
         mode="normal"
         id="feBlend948" /></filter><filter
       inkscape:menu-tooltip="In and out glow with a possible offset and colorizable flood"
       inkscape:menu="Shadows and Glows"
       inkscape:label="Cutout Glow"
       style="color-interpolation-filters:sRGB;"
       id="filter964"><feOffset
         dy="3"
         dx="3"
         id="feOffset954" /><feGaussianBlur
         stdDeviation="3"
         result="blur"
         id="feGaussianBlur956" /><feFlood
         flood-color="rgb(0,0,0)"
         flood-opacity="1"
         result="flood"
         id="feFlood958" /><feComposite
         in="flood"
         in2="SourceGraphic"
         operator="in"
         result="composite"
         id="feComposite960" /><feBlend
         in="blur"
         in2="composite"
         mode="normal"
         id="feBlend962" /></filter><filter
       inkscape:menu-tooltip="In and out glow with a possible offset and colorizable flood"
       inkscape:menu="Shadows and Glows"
       inkscape:label="Cutout Glow"
       style="color-interpolation-filters:sRGB;"
       id="filter976"><feOffset
         dy="3"
         dx="3"
         id="feOffset966" /><feGaussianBlur
         stdDeviation="3"
         result="blur"
         id="feGaussianBlur968" /><feFlood
         flood-color="rgb(0,0,0)"
         flood-opacity="1"
         result="flood"
         id="feFlood970" /><feComposite
         in="flood"
         in2="SourceGraphic"
         operator="in"
         result="composite"
         id="feComposite972" /><feBlend
         in="blur"
         in2="composite"
         mode="normal"
         id="feBlend974" /></filter></defs><sodipodi:namedview
     pagecolor="#ffffff"
     bordercolor="#666666"
     borderopacity="1"
     objecttolerance="10"
     gridtolerance="10"
     guidetolerance="10"
     inkscape:pageopacity="0"
     inkscape:pageshadow="2"
     inkscape:window-width="1360"
     inkscape:window-height="705"
     id="namedview3715"
     showgrid="false"
     inkscape:zoom="1.4142136"
     inkscape:cx="259.35994"
     inkscape:cy="177.0013"
     inkscape:window-x="-8"
     inkscape:window-y="-8"
     inkscape:window-maximized="1"
     inkscape:current-layer="g3731"
     showguides="false"><sodipodi:guide
       position="-173.99999,485.99997"
       orientation="-0.70710678,0.70710678"
       id="guide1925"
       inkscape:locked="false" /></sodipodi:namedview><g
     id="g3721"
     inkscape:groupmode="layer"
     inkscape:label="RJ45_2"
     transform="matrix(1.3333333,0,0,-1.3333333,-245.55078,1269.1567)"><g
       id="g3729"
       transform="translate(132.651,-6.441)"><g
         id="g3731"
         clip-path="url(#clipPath3735)"><g
   aria-label=" INTECH NOLOGY"
   transform="matrix(0.7850505,0,0,-0.98861708,-177.41038,1010.1793)"
   style="font-style:normal;font-weight:normal;font-size:40px;line-height:0.5;font-family:sans-serif;letter-spacing:0px;word-spacing:0px;fill:#000000;fill-opacity:1;stroke:none;filter:url(#filter964)"
   id="flowRoot2173"><path
     d="M 531.2834,117.81607 V 58.082736 h -10.66667 v 59.733334 z"
     style="letter-spacing:0.62147129px;fill:#000000;fill-opacity:1"
     id="path1574"
     inkscape:connector-curvature="0" /><path
     d="m 589.47153,58.082736 v 38.058668 l -38.4,-29.610668 -10.66666,-8.192 V 117.9014 h 10.66666 V 80.098736 l 38.4,29.610664 10.66667,8.192 V 58.168069 Z"
     style="line-height:0.99000001;letter-spacing:0.62147129px;fill:#000000;fill-opacity:1"
     id="path1576"
     inkscape:connector-curvature="0" /><path
     d="m 609.35967,58.168069 v 10.666667 h 24.49067 V 117.9014 H 644.517 V 68.834736 h 24.49067 V 58.168069 Z"
     style="line-height:0.99000001;letter-spacing:0.62147129px;fill:#000000;fill-opacity:1"
     id="path1578"
     inkscape:connector-curvature="0" /><path
     d="m 694.44249,68.749403 h 43.60533 V 58.082736 h -43.60533 c -8.87467,0 -16.04267,7.253333 -16.04267,16.128 v 27.477334 c 0,8.87467 7.168,16.128 16.04267,16.128 h 43.60533 V 107.1494 h -43.60533 c -2.98667,0 -5.46134,-2.47466 -5.46134,-5.46133 v -11.264 h 38.40001 V 79.757403 h -38.40001 v -5.546667 c 0,-2.986667 2.47467,-5.461333 5.46134,-5.461333 z"
     style="line-height:0.99000001;letter-spacing:0.62147129px;fill:#000000;fill-opacity:1"
     id="path1580"
     inkscape:connector-curvature="0" /><path
     d="m 771.61597,68.749403 h 29.86667 V 58.082736 h -29.86667 c -16.46933,0 -29.86667,13.397333 -29.86667,29.866667 0,16.469337 13.39734,29.866667 29.86667,29.866667 h 29.86667 V 107.1494 h -29.86667 c -10.58133,0 -19.2,-8.618663 -19.2,-19.199997 0,-10.581333 8.61867,-19.2 19.2,-19.2 z"
     style="line-height:0.99000001;letter-spacing:0.62147129px;fill:#000000;fill-opacity:1"
     id="path1582"
     inkscape:connector-curvature="0" /><path
     d="m 859.62411,58.082736 v 21.674667 h -38.4 V 58.082736 h -10.66667 v 59.733334 h 10.66667 v -27.392 h 38.4 v 27.392 h 10.66666 V 58.082736 Z"
     style="line-height:0.99000001;letter-spacing:0.62147129px;fill:#000000;fill-opacity:1"
     id="path1584"
     inkscape:connector-curvature="0" /><path
     d="m 527.15474,130.18941 v 38.05867 l -38.4,-29.61067 -10.66666,-8.192 v 59.56267 h 10.66666 v -37.80267 l 38.4,29.61067 10.66667,8.192 v -59.73333 z"
     style="font-style:normal;font-variant:normal;font-weight:normal;font-stretch:normal;font-size:85.33333588px;line-height:0.69999999;font-family:Azonix;-inkscape-font-specification:'Azonix, Normal';font-variant-ligatures:normal;font-variant-caps:normal;font-variant-numeric:normal;font-feature-settings:normal;text-align:start;letter-spacing:4.00125551px;writing-mode:lr-tb;text-anchor:start;fill:#000000;fill-opacity:1"
     id="path1586"
     inkscape:connector-curvature="0" /><path
     d="m 578.15601,130.18941 c -16.46934,0 -29.86667,13.39734 -29.86667,29.86667 0,16.46933 13.39733,29.86667 29.86667,29.86667 16.46933,0 29.86666,-13.39734 29.86666,-29.86667 0,-16.46933 -13.39733,-29.86667 -29.86666,-29.86667 z m 0,49.06667 c -10.58134,0 -19.2,-8.61867 -19.2,-19.2 0,-10.58133 8.61866,-19.2 19.2,-19.2 10.58133,0 19.2,8.61867 19.2,19.2 0,10.58133 -8.61867,19.2 -19.2,19.2 z"
     style="font-style:normal;font-variant:normal;font-weight:normal;font-stretch:normal;font-size:85.33333588px;line-height:0.69999999;font-family:Azonix;-inkscape-font-specification:'Azonix, Normal';font-variant-ligatures:normal;font-variant-caps:normal;font-variant-numeric:normal;font-feature-settings:normal;text-align:start;letter-spacing:4.00125551px;writing-mode:lr-tb;text-anchor:start;fill:#000000;fill-opacity:1"
     id="path1588"
     inkscape:connector-curvature="0" /><path
     d="m 636.34392,179.25608 c -3.75466,-0.512 -6.74133,-3.49867 -7.25333,-7.25333 v -41.728 h -10.66667 v 40.704 c 0,2.98666 0.68267,5.80266 1.96267,8.36266 1.792,3.75467 4.864,6.82667 8.61867,8.704 2.56,1.28 5.376,1.96267 8.36266,1.96267 h 30.29334 v -10.66667 z"
     style="font-style:normal;font-variant:normal;font-weight:normal;font-stretch:normal;font-size:85.33333588px;line-height:0.69999999;font-family:Azonix;-inkscape-font-specification:'Azonix, Normal';font-variant-ligatures:normal;font-variant-caps:normal;font-variant-numeric:normal;font-feature-settings:normal;text-align:start;letter-spacing:4.00125551px;writing-mode:lr-tb;text-anchor:start;fill:#000000;fill-opacity:1"
     id="path1590"
     inkscape:connector-curvature="0" /><path
     d="m 701.49185,130.18941 c -16.46933,0 -29.86667,13.39734 -29.86667,29.86667 0,16.46933 13.39734,29.86667 29.86667,29.86667 16.46934,0 29.86667,-13.39734 29.86667,-29.86667 0,-16.46933 -13.39733,-29.86667 -29.86667,-29.86667 z m 0,49.06667 c -10.58133,0 -19.2,-8.61867 -19.2,-19.2 0,-10.58133 8.61867,-19.2 19.2,-19.2 10.58134,0 19.2,8.61867 19.2,19.2 0,10.58133 -8.61866,19.2 -19.2,19.2 z"
     style="font-style:normal;font-variant:normal;font-weight:normal;font-stretch:normal;font-size:85.33333588px;line-height:0.69999999;font-family:Azonix;-inkscape-font-specification:'Azonix, Normal';font-variant-ligatures:normal;font-variant-caps:normal;font-variant-numeric:normal;font-feature-settings:normal;text-align:start;letter-spacing:4.00125551px;writing-mode:lr-tb;text-anchor:start;fill:#000000;fill-opacity:1"
     id="path1592"
     inkscape:connector-curvature="0" /><path
     d="m 771.62644,140.85608 h 29.86666 v -10.66667 h -29.86666 c -16.46934,0 -29.86667,13.39734 -29.86667,29.86667 0,16.46933 13.39733,29.86667 29.86667,29.86667 h 29.86666 v -32.768 h -29.86666 v 10.66666 h 19.2 v 11.43467 h -19.2 c -10.58134,0 -19.2,-8.61867 -19.2,-19.2 0,-10.58133 8.61866,-19.2 19.2,-19.2 z"
     style="font-style:normal;font-variant:normal;font-weight:normal;font-stretch:normal;font-size:85.33333588px;line-height:0.69999999;font-family:Azonix;-inkscape-font-specification:'Azonix, Normal';font-variant-ligatures:normal;font-variant-caps:normal;font-variant-numeric:normal;font-feature-settings:normal;text-align:start;letter-spacing:4.00125551px;writing-mode:lr-tb;text-anchor:start;fill:#000000;fill-opacity:1"
     id="path1595"
     inkscape:connector-curvature="0" /><path
     d="m 857.01703,130.10408 -16.384,21.248 -16.384,-21.248 h -13.48267 l 23.12534,29.952 1.45066,1.792 v 27.98933 h 10.66667 v -28.16 l 1.28,-1.62133 23.12534,-29.952 z m -46.336,59.98933 0.17067,-0.17066 h -0.17067 z m 59.73334,0 v -0.17066 h -0.0853 z"
     style="font-style:normal;font-variant:normal;font-weight:normal;font-stretch:normal;font-size:85.33333588px;line-height:0.69999999;font-family:Azonix;-inkscape-font-specification:'Azonix, Normal';font-variant-ligatures:normal;font-variant-caps:normal;font-variant-numeric:normal;font-feature-settings:normal;text-align:start;letter-spacing:4.00125551px;writing-mode:lr-tb;text-anchor:start;fill:#000000;fill-opacity:1"
     id="path1597"
     inkscape:connector-curvature="0" /></g><flowRoot
   xml:space="preserve"
   id="flowRoot1661"
   style="fill:black;fill-opacity:1;stroke:none;font-family:'Tw Cen MT';font-style:normal;font-weight:normal;font-size:40px;line-height:1.25;letter-spacing:0px;word-spacing:0px;-inkscape-font-specification:'Tw Cen MT';font-stretch:normal;font-variant:normal;"><flowRegion
     id="flowRegion1663"
     style="-inkscape-font-specification:'Tw Cen MT';font-family:'Tw Cen MT';font-weight:normal;font-style:normal;font-stretch:normal;font-variant:normal;"><rect
       id="rect1665"
       width="583"
       height="50"
       x="23"
       y="206.9324"
       style="-inkscape-font-specification:'Tw Cen MT';font-family:'Tw Cen MT';font-weight:normal;font-style:normal;font-stretch:normal;font-variant:normal;" /></flowRegion><flowPara
     id="flowPara1667" /></flowRoot><flowRoot
   xml:space="preserve"
   id="flowRoot1669"
   style="fill:black;fill-opacity:1;stroke:none;font-family:'Tw Cen MT';font-style:normal;font-weight:normal;font-size:40px;line-height:1.25;letter-spacing:0px;word-spacing:0px;-inkscape-font-specification:'Tw Cen MT';font-stretch:normal;font-variant:normal;"><flowRegion
     id="flowRegion1671"
     style="-inkscape-font-specification:'Tw Cen MT';font-family:'Tw Cen MT';font-weight:normal;font-style:normal;font-stretch:normal;font-variant:normal;"><rect
       id="rect1673"
       width="599.56934"
       height="56.190117"
       x="9.4306803"
       y="195.74229"
       style="-inkscape-font-specification:'Tw Cen MT';font-family:'Tw Cen MT';font-weight:normal;font-style:normal;font-stretch:normal;font-variant:normal;" /></flowRegion><flowPara
     id="flowPara1675" /></flowRoot>
<g
   aria-label="it"
   transform="matrix(0.66872281,0,0,-0.76766981,54.268258,989.90926)"
   style="font-style:normal;font-weight:normal;font-size:40px;line-height:1.25;font-family:sans-serif;letter-spacing:0px;word-spacing:0px;fill:#000000;fill-opacity:1;stroke:none;filter:url(#filter976)"
   id="flowRoot914"><path
     d="M 41.296875,217.92624 -3,173.67624 v -7.40625 l 44.296875,44.29687 z m 0,-29.48438 L -3,144.14499 v -29.53125 l 44.296875,44.29687 z m 0,-36.9375 L -3,107.20749 V 48.144988 h 44.296875 z"
     style="font-style:normal;font-variant:normal;font-weight:normal;font-stretch:normal;font-size:192px;font-family:'Auto Techno';-inkscape-font-specification:'Auto Techno'"
     id="path978"
     inkscape:connector-curvature="0" /><path
     d="m 166.73437,217.92624 -44.29687,-44.25 v -7.40625 l 44.29687,44.29687 z m 0,-29.48438 -44.29687,-44.29687 v -29.53125 l 44.29687,44.29687 z m 0,-36.9375 -44.29687,-44.29687 V 92.441863 H 63.375 V 48.144988 h 192 l -44.34375,44.296875 h -44.29688 z"
     style="font-style:normal;font-variant:normal;font-weight:normal;font-stretch:normal;font-size:192px;font-family:'Auto Techno';-inkscape-font-specification:'Auto Techno'"
     id="path980"
     inkscape:connector-curvature="0" /></g><g
   aria-label="~ SOLUÇÕES EM TECNOLOGIA ..     "
   transform="matrix(0.75000002,0,0,-0.75000002,56.76209,989.62657)"
   style="font-style:normal;font-weight:normal;font-size:37.33333206px;line-height:1.25;font-family:sans-serif;letter-spacing:0px;word-spacing:0px;fill:#000000;fill-opacity:1;stroke:none;filter:url(#filter950)"
   id="flowRoot922"><path
     d="m 158.30779,237.47019 c -0.448,-0.224 -0.896,-0.41067 -1.30666,-0.56 0,0 0,0 0,0 -1.49334,-0.56 -2.8,-0.82133 -3.99467,-0.784 -1.97867,0.0373 -3.62133,0.784 -5.18933,2.05333 v 4.592 c 0,0 0,0 0,0 2.05333,-1.344 3.32266,-2.20267 4.77866,-2.27733 0.85867,-0.0373 1.792,0.18666 3.024,0.74666 0.448,0.224 0.896,0.41067 1.30667,0.56 0,0 0,0 0,0 3.92,1.49334 6.68267,0.74667 9.14667,-1.26933 v -4.592 c -3.28534,2.128 -4.592,3.06134 -7.84,1.53067 z"
     style="font-style:normal;font-variant:normal;font-weight:normal;font-stretch:normal;font-size:37.33333206px;font-family:Azonix;-inkscape-font-specification:Azonix"
     id="path1028"
     inkscape:connector-curvature="0" /><path
     d="m 32.581332,254.30949 v -0.14934 c 0,-3.88266 -3.173333,-7.056 -7.055999,-7.056 H 14.922666 c -3.882666,0 -7.0186661,3.17334 -7.0186661,7.056 v 0.14934 c 0,1.49333 0.448,2.87466 1.232,3.99466 0.2613333,0.41067 0.56,0.784 0.8960001,1.12 1.269333,1.232 2.986666,1.97867 4.890666,1.97867 h 9.408 c 1.978667,0 3.621333,1.60533 3.621333,3.584 0,1.97867 -1.642666,3.584 -3.621333,3.584 h -8.176 c -1.978666,0 -3.584,-1.60533 -3.584,-3.584 H 7.9039999 c 0,4.55467 3.6960001,8.25067 8.2506661,8.25067 h 8.176 c 4.554667,0 8.250666,-3.696 8.250666,-8.25067 0,-1.97867 -0.709333,-3.808 -1.866666,-5.22667 -0.112,-0.112 -0.186667,-0.224 -0.298667,-0.336 -1.493333,-1.64266 -3.658666,-2.688 -6.085333,-2.688 h -9.408 c -1.306666,0 -2.389333,-1.08266 -2.389333,-2.38933 v -0.14933 c 0,-1.30667 1.082667,-2.38934 2.389333,-2.38934 h 10.602667 c 1.306666,0 2.389333,1.08267 2.389333,2.38934 v 0.14933 z"
     style="font-style:normal;font-variant:normal;font-weight:normal;font-stretch:normal;font-size:37.33333206px;font-family:Azonix;-inkscape-font-specification:Azonix"
     id="path1030"
     inkscape:connector-curvature="0" /><path
     d="m 48.437498,247.10415 c -7.205333,0 -13.066667,5.86134 -13.066667,13.06667 0,7.20533 5.861334,13.06667 13.066667,13.06667 7.205333,0 13.066666,-5.86134 13.066666,-13.06667 0,-7.20533 -5.861333,-13.06667 -13.066666,-13.06667 z m 0,21.46667 c -4.629334,0 -8.4,-3.77067 -8.4,-8.4 0,-4.62933 3.770666,-8.4 8.4,-8.4 4.629333,0 8.399999,3.77067 8.399999,8.4 0,4.62933 -3.770666,8.4 -8.399999,8.4 z"
     style="font-style:normal;font-variant:normal;font-weight:normal;font-stretch:normal;font-size:37.33333206px;font-family:Azonix;-inkscape-font-specification:Azonix"
     id="path1032"
     inkscape:connector-curvature="0" /><path
     d="m 72.144166,268.57082 c -1.642666,-0.224 -2.949333,-1.53067 -3.173333,-3.17333 v -18.256 h -4.666666 v 17.808 c 0,1.30666 0.298666,2.53866 0.858666,3.65866 0.784,1.64267 2.128,2.98667 3.770667,3.808 1.12,0.56 2.352,0.85867 3.658666,0.85867 h 13.253333 v -4.66667 z"
     style="font-style:normal;font-variant:normal;font-weight:normal;font-stretch:normal;font-size:37.33333206px;font-family:Azonix;-inkscape-font-specification:Azonix"
     id="path1034"
     inkscape:connector-curvature="0" /><path
     d="m 108.22916,247.10415 v 13.06667 c 0,4.62933 -3.77067,8.4 -8.399999,8.4 -4.629333,0 -8.4,-3.77067 -8.4,-8.4 v -13.06667 h -4.666666 v 13.06667 c 0,7.20533 5.861333,13.06667 13.066666,13.06667 7.205329,0 13.066669,-5.86134 13.066669,-13.06667 v -13.06667 z"
     style="font-style:normal;font-variant:normal;font-weight:normal;font-stretch:normal;font-size:37.33333206px;font-family:Azonix;-inkscape-font-specification:Azonix"
     id="path1036"
     inkscape:connector-curvature="0" /><path
     d="m 129.35166,251.77082 h 13.06667 v -4.66667 h -13.06667 c -7.20533,0 -13.06666,5.86134 -13.06666,13.06667 0,7.20533 5.86133,13.06667 13.06666,13.06667 h 13.06667 v -4.66667 h -13.06667 c -4.62933,0 -8.4,-3.77067 -8.4,-8.4 0,-4.62933 3.77067,-8.4 8.4,-8.4 z"
     style="font-style:normal;font-variant:normal;font-weight:normal;font-stretch:normal;font-size:37.33333206px;font-family:Azonix;-inkscape-font-specification:Azonix"
     id="path1038"
     inkscape:connector-curvature="0" /><path
     d="m 156.57291,247.10415 c -7.20534,0 -13.06667,5.86134 -13.06667,13.06667 0,7.20533 5.86133,13.06667 13.06667,13.06667 7.20533,0 13.06666,-5.86134 13.06666,-13.06667 0,-7.20533 -5.86133,-13.06667 -13.06666,-13.06667 z m 0,21.46667 c -4.62934,0 -8.4,-3.77067 -8.4,-8.4 0,-4.62933 3.77066,-8.4 8.4,-8.4 4.62933,0 8.4,3.77067 8.4,8.4 0,4.62933 -3.77067,8.4 -8.4,8.4 z"
     style="font-style:normal;font-variant:normal;font-weight:normal;font-stretch:normal;font-size:37.33333206px;font-family:Azonix;-inkscape-font-specification:Azonix"
     id="path1040"
     inkscape:connector-curvature="0" /><path
     d="m 179.49557,251.77082 h 19.07734 v -4.66667 h -19.07734 c -3.88266,0 -7.01866,3.17334 -7.01866,7.056 v 12.02134 c 0,3.88266 3.136,7.056 7.01866,7.056 h 19.07734 v -4.66667 h -19.07734 c -1.30666,0 -2.38933,-1.08267 -2.38933,-2.38933 v -4.928 h 16.8 v -4.66667 h -16.8 v -2.42667 c 0,-1.30666 1.08267,-2.38933 2.38933,-2.38933 z"
     style="font-style:normal;font-variant:normal;font-weight:normal;font-stretch:normal;font-size:37.33333206px;font-family:Azonix;-inkscape-font-specification:Azonix"
     id="path1042"
     inkscape:connector-curvature="0" /><path
     d="m 227.05008,254.30949 v -0.14934 c 0,-3.88266 -3.17333,-7.056 -7.056,-7.056 h -10.60266 c -3.88267,0 -7.01867,3.17334 -7.01867,7.056 v 0.14934 c 0,1.49333 0.448,2.87466 1.232,3.99466 0.26133,0.41067 0.56,0.784 0.896,1.12 1.26933,1.232 2.98667,1.97867 4.89067,1.97867 h 9.408 c 1.97866,0 3.62133,1.60533 3.62133,3.584 0,1.97867 -1.64267,3.584 -3.62133,3.584 h -8.176 c -1.97867,0 -3.584,-1.60533 -3.584,-3.584 h -4.66667 c 0,4.55467 3.696,8.25067 8.25067,8.25067 h 8.176 c 4.55466,0 8.25066,-3.696 8.25066,-8.25067 0,-1.97867 -0.70933,-3.808 -1.86666,-5.22667 -0.112,-0.112 -0.18667,-0.224 -0.29867,-0.336 -1.49333,-1.64266 -3.65867,-2.688 -6.08533,-2.688 h -9.408 c -1.30667,0 -2.38934,-1.08266 -2.38934,-2.38933 v -0.14933 c 0,-1.30667 1.08267,-2.38934 2.38934,-2.38934 h 10.60266 c 1.30667,0 2.38934,1.08267 2.38934,2.38934 v 0.14933 z"
     style="font-style:normal;font-variant:normal;font-weight:normal;font-stretch:normal;font-size:37.33333206px;font-family:Azonix;-inkscape-font-specification:Azonix"
     id="path1044"
     inkscape:connector-curvature="0" /><path
     d="m 255.98517,251.77082 h 19.07733 v -4.66667 h -19.07733 c -3.88267,0 -7.01867,3.17334 -7.01867,7.056 v 12.02134 c 0,3.88266 3.136,7.056 7.01867,7.056 h 19.07733 v -4.66667 h -19.07733 c -1.30667,0 -2.38934,-1.08267 -2.38934,-2.38933 v -4.928 h 16.8 v -4.66667 h -16.8 v -2.42667 c 0,-1.30666 1.08267,-2.38933 2.38934,-2.38933 z"
     style="font-style:normal;font-variant:normal;font-weight:normal;font-stretch:normal;font-size:37.33333206px;font-family:Azonix;-inkscape-font-specification:Azonix"
     id="path1046"
     inkscape:connector-curvature="0" /><path
     d="m 300.29165,250.68815 -8.4,6.45867 -8.4,-6.45867 -4.66667,-3.584 v 26.13334 h 4.66667 v -16.65067 l 4.592,3.50933 3.808,2.94934 3.808,-2.94934 4.592,-3.50933 v 16.65067 h 4.66666 v -26.13334 z"
     style="font-style:normal;font-variant:normal;font-weight:normal;font-stretch:normal;font-size:37.33333206px;font-family:Azonix;-inkscape-font-specification:Azonix"
     id="path1048"
     inkscape:connector-curvature="0" /><path
     d="m 326.87707,247.14149 v 4.66666 h 10.71467 v 21.46667 h 4.66667 v -21.46667 h 10.71466 v -4.66666 z"
     style="font-style:normal;font-variant:normal;font-weight:normal;font-stretch:normal;font-size:37.33333206px;font-family:Azonix;-inkscape-font-specification:Azonix"
     id="path1050"
     inkscape:connector-curvature="0" /><path
     d="m 363.82892,251.77082 h 19.07733 v -4.66667 h -19.07733 c -3.88267,0 -7.01867,3.17334 -7.01867,7.056 v 12.02134 c 0,3.88266 3.136,7.056 7.01867,7.056 h 19.07733 v -4.66667 h -19.07733 c -1.30667,0 -2.38934,-1.08267 -2.38934,-2.38933 v -4.928 h 16.8 v -4.66667 h -16.8 v -2.42667 c 0,-1.30666 1.08267,-2.38933 2.38934,-2.38933 z"
     style="font-style:normal;font-variant:normal;font-weight:normal;font-stretch:normal;font-size:37.33333206px;font-family:Azonix;-inkscape-font-specification:Azonix"
     id="path1052"
     inkscape:connector-curvature="0" /><path
     d="m 397.32041,251.77082 h 13.06666 v -4.66667 h -13.06666 c -7.20534,0 -13.06667,5.86134 -13.06667,13.06667 0,7.20533 5.86133,13.06667 13.06667,13.06667 h 13.06666 v -4.66667 h -13.06666 c -4.62934,0 -8.4,-3.77067 -8.4,-8.4 0,-4.62933 3.77066,-8.4 8.4,-8.4 z"
     style="font-style:normal;font-variant:normal;font-weight:normal;font-stretch:normal;font-size:37.33333206px;font-family:Azonix;-inkscape-font-specification:Azonix"
     id="path1054"
     inkscape:connector-curvature="0" /><path
     d="m 435.55208,247.10415 v 16.65067 l -16.8,-12.95467 -4.66666,-3.584 v 26.05867 h 4.66666 v -16.53867 l 16.8,12.95467 4.66667,3.584 v -26.13333 z"
     style="font-style:normal;font-variant:normal;font-weight:normal;font-stretch:normal;font-size:37.33333206px;font-family:Azonix;-inkscape-font-specification:Azonix"
     id="path1056"
     inkscape:connector-curvature="0" /><path
     d="m 456.11456,247.10415 c -7.20533,0 -13.06666,5.86134 -13.06666,13.06667 0,7.20533 5.86133,13.06667 13.06666,13.06667 7.20534,0 13.06667,-5.86134 13.06667,-13.06667 0,-7.20533 -5.86133,-13.06667 -13.06667,-13.06667 z m 0,21.46667 c -4.62933,0 -8.4,-3.77067 -8.4,-8.4 0,-4.62933 3.77067,-8.4 8.4,-8.4 4.62934,0 8.4,3.77067 8.4,8.4 0,4.62933 -3.77066,8.4 -8.4,8.4 z"
     style="font-style:normal;font-variant:normal;font-weight:normal;font-stretch:normal;font-size:37.33333206px;font-family:Azonix;-inkscape-font-specification:Azonix"
     id="path1058"
     inkscape:connector-curvature="0" /><path
     d="m 479.82123,268.57082 c -1.64267,-0.224 -2.94933,-1.53067 -3.17333,-3.17333 v -18.256 h -4.66667 v 17.808 c 0,1.30666 0.29867,2.53866 0.85867,3.65866 0.784,1.64267 2.128,2.98667 3.77066,3.808 1.12,0.56 2.352,0.85867 3.65867,0.85867 h 13.25333 v -4.66667 z"
     style="font-style:normal;font-variant:normal;font-weight:normal;font-stretch:normal;font-size:37.33333206px;font-family:Azonix;-inkscape-font-specification:Azonix"
     id="path1060"
     inkscape:connector-curvature="0" /><path
     d="m 506.57291,247.10415 c -7.20534,0 -13.06667,5.86134 -13.06667,13.06667 0,7.20533 5.86133,13.06667 13.06667,13.06667 7.20533,0 13.06666,-5.86134 13.06666,-13.06667 0,-7.20533 -5.86133,-13.06667 -13.06666,-13.06667 z m 0,21.46667 c -4.62934,0 -8.4,-3.77067 -8.4,-8.4 0,-4.62933 3.77066,-8.4 8.4,-8.4 4.62933,0 8.4,3.77067 8.4,8.4 0,4.62933 -3.77067,8.4 -8.4,8.4 z"
     style="font-style:normal;font-variant:normal;font-weight:normal;font-stretch:normal;font-size:37.33333206px;font-family:Azonix;-inkscape-font-specification:Azonix"
     id="path1062"
     inkscape:connector-curvature="0" /><path
     d="m 535.50621,251.77082 h 13.06667 v -4.66667 h -13.06667 c -7.20533,0 -13.06667,5.86134 -13.06667,13.06667 0,7.20533 5.86134,13.06667 13.06667,13.06667 h 13.06667 v -14.336 h -13.06667 v 4.66666 h 8.4 v 5.00267 h -8.4 c -4.62933,0 -8.4,-3.77067 -8.4,-8.4 0,-4.62933 3.77067,-8.4 8.4,-8.4 z"
     style="font-style:normal;font-variant:normal;font-weight:normal;font-stretch:normal;font-size:37.33333206px;font-family:Azonix;-inkscape-font-specification:Azonix"
     id="path1064"
     inkscape:connector-curvature="0" /><path
     d="m 557.00208,273.23749 v -26.13334 h -4.66666 v 26.13334 z"
     style="font-style:normal;font-variant:normal;font-weight:normal;font-stretch:normal;font-size:37.33333206px;font-family:Azonix;-inkscape-font-specification:Azonix"
     id="path1066"
     inkscape:connector-curvature="0" /><path
     d="m 583.53146,268.57082 -10.93867,-21.46667 -10.93866,21.46667 -2.38934,4.66667 h 5.22667 l 2.38933,-4.66667 5.712,-11.2 5.712,11.2 2.38934,4.66667 h 5.22666 z"
     style="font-style:normal;font-variant:normal;font-weight:normal;font-stretch:normal;font-size:37.33333206px;font-family:Azonix;-inkscape-font-specification:Azonix"
     id="path1068"
     inkscape:connector-curvature="0" /><path
     d="m 12.533333,321.74433 v -4.66666 H 7.8666666 v 4.66666 z"
     style="font-style:normal;font-variant:normal;font-weight:normal;font-stretch:normal;font-size:37.33333206px;font-family:Azonix;-inkscape-font-specification:Azonix"
     id="path1070"
     inkscape:connector-curvature="0" /><path
     d="m 20.918749,321.74433 v -4.66666 h -4.666666 v 4.66666 z"
     style="font-style:normal;font-variant:normal;font-weight:normal;font-stretch:normal;font-size:37.33333206px;font-family:Azonix;-inkscape-font-specification:Azonix"
     id="path1072"
     inkscape:connector-curvature="0" /></g><path
   d="M 10.49066,1.53067 C 10.04266,1.30667 9.59466,1.12 9.184,0.97067 v 0 C 7.69066,0.41067 6.384,0.14934 5.18933,0.18667 3.21066,0.22397 1.568,0.97067 0,2.24 L 2.0484975,5.4789271 3.4545137,4.8834697 C 4.3300157,4.4898625 4.77866,4.55467 4.77866,4.55467 c 0.7476399,0.016514 1.792,0.18666 3.024,0.74666 0.448,0.224 0.896,0.41067 1.30667,0.56 v 0 C 13.02933,7.35467 15.792,6.608 18.256,4.592 l 0,-4.592 c -3.28534,2.128 -4.592,3.06134 -7.84,1.53067 z"
   style="font-style:normal;font-variant:normal;font-weight:normal;font-stretch:normal;font-size:37.33333206px;line-height:1.25;font-family:Azonix;-inkscape-font-specification:Azonix;letter-spacing:0px;word-spacing:0px;fill:#000000;fill-opacity:1;stroke:none"
   id="path1028-8"
   inkscape:connector-curvature="0"
   transform="matrix(0.24147622,0.40289091,0.49821482,-0.25756593,150.72282,780.24899)"
   sodipodi:nodetypes="ccccccccccccccc" /></g></g></g></svg>